<svg width="21" height="21" viewBox="0 0 21 21" fill="none" xmlns="http://www.w3.org/2000/svg">
<path d="M6.5 16H14.5M9.5177 1.76403L2.73539 7.03916C2.28202 7.39178 2.05534 7.56809 1.89203 7.78889C1.74737 7.98447 1.6396 8.20481 1.57403 8.43908C1.5 8.70355 1.5 8.99073 1.5 9.56508V16.8C1.5 17.9201 1.5 18.4802 1.71799 18.908C1.90973 19.2843 2.21569 19.5903 2.59202 19.782C3.01984 20 3.57989 20 4.7 20H16.3C17.4201 20 17.9802 20 18.408 19.782C18.7843 19.5903 19.0903 19.2843 19.282 18.908C19.5 18.4802 19.5 17.9201 19.5 16.8V9.56508C19.5 8.99073 19.5 8.70355 19.426 8.43908C19.3604 8.20481 19.2526 7.98447 19.108 7.78889C18.9447 7.56809 18.718 7.39178 18.2646 7.03916L11.4823 1.76403C11.131 1.49078 10.9553 1.35415 10.7613 1.30163C10.5902 1.25529 10.4098 1.25529 10.2387 1.30163C10.0447 1.35415 9.86902 1.49078 9.5177 1.76403Z" stroke="black" stroke-opacity="0.6" stroke-width="2" stroke-linecap="round" stroke-linejoin="round"/>
</svg>
